# MagicaVoxel @ Ephtracy

# group
o 

# material
mtllib Coin.mtl
usemtl palette

# normals
vn -1 0 0
vn 1 0 0
vn 0 0 1
vn 0 0 -1
vn 0 -1 0
vn 0 1 0

# texcoords
vt 0.427734 0.5
vt 0.478516 0.5

# verts
v 7.45058e-09 0 0.2
v 7.45058e-09 0 -0.2
v 7.45058e-09 0.1 0.3
v 7.45058e-09 0.1 0.2
v 7.45058e-09 0.1 -0.2
v 7.45058e-09 0.1 -0.3
v 7.45058e-09 0.2 0.4
v 7.45058e-09 0.2 0.3
v 7.45058e-09 0.2 0.2
v 7.45058e-09 0.2 0.1
v 7.45058e-09 0.2 -0.1
v 7.45058e-09 0.2 -0.2
v 7.45058e-09 0.2 -0.3
v 7.45058e-09 0.2 -0.4
v 7.45058e-09 0.3 0.2
v 7.45058e-09 0.3 0.1
v 7.45058e-09 0.3 0
v 7.45058e-09 0.3 -0.1
v 7.45058e-09 0.3 -0.2
v 7.45058e-09 0.4 0.2
v 7.45058e-09 0.4 0
v 7.45058e-09 0.5 0.1
v 7.45058e-09 0.5 -0.1
v 7.45058e-09 0.5 -0.2
v 7.45058e-09 0.6 0.4
v 7.45058e-09 0.6 0.3
v 7.45058e-09 0.6 0.2
v 7.45058e-09 0.6 0.1
v 7.45058e-09 0.6 -0.1
v 7.45058e-09 0.6 -0.2
v 7.45058e-09 0.6 -0.3
v 7.45058e-09 0.6 -0.4
v 7.45058e-09 0.7 0.3
v 7.45058e-09 0.7 0.2
v 7.45058e-09 0.7 -0.2
v 7.45058e-09 0.7 -0.3
v 7.45058e-09 0.8 0.2
v 7.45058e-09 0.8 -0.2
v 0.1 0 0.2
v 0.1 0 -0.2
v 0.1 0.1 0.3
v 0.1 0.1 0.2
v 0.1 0.1 -0.2
v 0.1 0.1 -0.3
v 0.1 0.2 0.4
v 0.1 0.2 0.3
v 0.1 0.2 0.2
v 0.1 0.2 0.1
v 0.1 0.2 -0.1
v 0.1 0.2 -0.2
v 0.1 0.2 -0.3
v 0.1 0.2 -0.4
v 0.1 0.3 0.2
v 0.1 0.3 0.1
v 0.1 0.3 0
v 0.1 0.3 -0.1
v 0.1 0.3 -0.2
v 0.1 0.4 0.2
v 0.1 0.4 0
v 0.1 0.5 0.1
v 0.1 0.5 -0.1
v 0.1 0.5 -0.2
v 0.1 0.6 0.4
v 0.1 0.6 0.3
v 0.1 0.6 0.2
v 0.1 0.6 0.1
v 0.1 0.6 -0.1
v 0.1 0.6 -0.2
v 0.1 0.6 -0.3
v 0.1 0.6 -0.4
v 0.1 0.7 0.3
v 0.1 0.7 0.2
v 0.1 0.7 -0.2
v 0.1 0.7 -0.3
v 0.1 0.8 0.2
v 0.1 0.8 -0.2
v 7.45058e-09 0.2 0.4
v 7.45058e-09 0.6 0.4
v 0.1 0.2 0.4
v 0.1 0.6 0.4
v 7.45058e-09 0.1 0.3
v 7.45058e-09 0.2 0.3
v 7.45058e-09 0.6 0.3
v 7.45058e-09 0.7 0.3
v 0.1 0.1 0.3
v 0.1 0.2 0.3
v 0.1 0.6 0.3
v 0.1 0.7 0.3
v 7.45058e-09 0 0.2
v 7.45058e-09 0.1 0.2
v 7.45058e-09 0.7 0.2
v 7.45058e-09 0.8 0.2
v 0.1 0 0.2
v 0.1 0.1 0.2
v 0.1 0.7 0.2
v 0.1 0.8 0.2
v 7.45058e-09 0 -0.2
v 7.45058e-09 0.1 -0.2
v 7.45058e-09 0.7 -0.2
v 7.45058e-09 0.8 -0.2
v 0.1 0 -0.2
v 0.1 0.1 -0.2
v 0.1 0.7 -0.2
v 0.1 0.8 -0.2
v 7.45058e-09 0.1 -0.3
v 7.45058e-09 0.2 -0.3
v 7.45058e-09 0.6 -0.3
v 7.45058e-09 0.7 -0.3
v 0.1 0.1 -0.3
v 0.1 0.2 -0.3
v 0.1 0.6 -0.3
v 0.1 0.7 -0.3
v 7.45058e-09 0.2 -0.4
v 7.45058e-09 0.6 -0.4
v 0.1 0.2 -0.4
v 0.1 0.6 -0.4
v 7.45058e-09 0 0.2
v 0.1 0 0.2
v 7.45058e-09 0 -0.2
v 0.1 0 -0.2
v 7.45058e-09 0.1 0.3
v 0.1 0.1 0.3
v 7.45058e-09 0.1 0.2
v 0.1 0.1 0.2
v 7.45058e-09 0.1 -0.2
v 0.1 0.1 -0.2
v 7.45058e-09 0.1 -0.3
v 0.1 0.1 -0.3
v 7.45058e-09 0.2 0.4
v 0.1 0.2 0.4
v 7.45058e-09 0.2 0.3
v 0.1 0.2 0.3
v 7.45058e-09 0.2 -0.3
v 0.1 0.2 -0.3
v 7.45058e-09 0.2 -0.4
v 0.1 0.2 -0.4
v 7.45058e-09 0.6 0.4
v 0.1 0.6 0.4
v 7.45058e-09 0.6 0.3
v 0.1 0.6 0.3
v 7.45058e-09 0.6 -0.3
v 0.1 0.6 -0.3
v 7.45058e-09 0.6 -0.4
v 0.1 0.6 -0.4
v 7.45058e-09 0.7 0.3
v 0.1 0.7 0.3
v 7.45058e-09 0.7 0.2
v 0.1 0.7 0.2
v 7.45058e-09 0.7 -0.2
v 0.1 0.7 -0.2
v 7.45058e-09 0.7 -0.3
v 0.1 0.7 -0.3
v 7.45058e-09 0.8 0.2
v 0.1 0.8 0.2
v 7.45058e-09 0.8 -0.2
v 0.1 0.8 -0.2

# faces
f 4/1/1 2/1/1 1/1/1
f 5/1/1 2/1/1 4/1/1
f 8/1/1 4/1/1 3/1/1
f 9/2/1 5/2/1 4/2/1
f 9/1/1 4/1/1 8/1/1
f 10/2/1 5/2/1 9/2/1
f 11/2/1 5/2/1 10/2/1
f 12/1/1 6/1/1 5/1/1
f 12/2/1 5/2/1 11/2/1
f 13/1/1 6/1/1 12/1/1
f 15/2/1 9/2/1 8/2/1
f 15/2/1 10/2/1 9/2/1
f 16/1/1 11/1/1 10/1/1
f 16/2/1 10/2/1 15/2/1
f 17/1/1 11/1/1 16/1/1
f 18/2/1 13/2/1 12/2/1
f 18/1/1 11/1/1 17/1/1
f 18/2/1 12/2/1 11/2/1
f 19/2/1 13/2/1 18/2/1
f 20/2/1 15/2/1 8/2/1
f 20/1/1 17/1/1 16/1/1
f 20/1/1 16/1/1 15/1/1
f 21/2/1 18/2/1 17/2/1
f 21/1/1 17/1/1 20/1/1
f 22/2/1 21/2/1 20/2/1
f 23/1/1 19/1/1 18/1/1
f 23/2/1 21/2/1 22/2/1
f 23/2/1 18/2/1 21/2/1
f 24/2/1 13/2/1 19/2/1
f 24/1/1 19/1/1 23/1/1
f 25/1/1 8/1/1 7/1/1
f 26/2/1 22/2/1 20/2/1
f 26/1/1 8/1/1 25/1/1
f 26/2/1 20/2/1 8/2/1
f 27/2/1 22/2/1 26/2/1
f 28/1/1 23/1/1 22/1/1
f 28/2/1 22/2/1 27/2/1
f 29/2/1 24/2/1 23/2/1
f 29/1/1 23/1/1 28/1/1
f 30/2/1 13/2/1 24/2/1
f 30/2/1 24/2/1 29/2/1
f 31/1/1 14/1/1 13/1/1
f 31/2/1 13/2/1 30/2/1
f 32/1/1 14/1/1 31/1/1
f 33/1/1 27/1/1 26/1/1
f 34/2/1 29/2/1 28/2/1
f 34/1/1 27/1/1 33/1/1
f 34/2/1 30/2/1 29/2/1
f 34/2/1 28/2/1 27/2/1
f 35/1/1 31/1/1 30/1/1
f 35/2/1 30/2/1 34/2/1
f 36/1/1 31/1/1 35/1/1
f 37/1/1 35/1/1 34/1/1
f 38/1/1 35/1/1 37/1/1
f 39/1/2 40/1/2 42/1/2
f 42/1/2 40/1/2 43/1/2
f 41/1/2 42/1/2 46/1/2
f 42/2/2 43/2/2 47/2/2
f 46/1/2 42/1/2 47/1/2
f 47/2/2 43/2/2 48/2/2
f 48/2/2 43/2/2 49/2/2
f 43/1/2 44/1/2 50/1/2
f 49/2/2 43/2/2 50/2/2
f 50/1/2 44/1/2 51/1/2
f 46/2/2 47/2/2 53/2/2
f 47/2/2 48/2/2 53/2/2
f 48/1/2 49/1/2 54/1/2
f 53/2/2 48/2/2 54/2/2
f 54/1/2 49/1/2 55/1/2
f 50/2/2 51/2/2 56/2/2
f 55/1/2 49/1/2 56/1/2
f 49/2/2 50/2/2 56/2/2
f 56/2/2 51/2/2 57/2/2
f 46/2/2 53/2/2 58/2/2
f 54/1/2 55/1/2 58/1/2
f 53/1/2 54/1/2 58/1/2
f 55/2/2 56/2/2 59/2/2
f 58/1/2 55/1/2 59/1/2
f 58/2/2 59/2/2 60/2/2
f 56/1/2 57/1/2 61/1/2
f 60/2/2 59/2/2 61/2/2
f 59/2/2 56/2/2 61/2/2
f 57/2/2 51/2/2 62/2/2
f 61/1/2 57/1/2 62/1/2
f 45/1/2 46/1/2 63/1/2
f 58/2/2 60/2/2 64/2/2
f 63/1/2 46/1/2 64/1/2
f 46/2/2 58/2/2 64/2/2
f 64/2/2 60/2/2 65/2/2
f 60/1/2 61/1/2 66/1/2
f 65/2/2 60/2/2 66/2/2
f 61/2/2 62/2/2 67/2/2
f 66/1/2 61/1/2 67/1/2
f 62/2/2 51/2/2 68/2/2
f 67/2/2 62/2/2 68/2/2
f 51/1/2 52/1/2 69/1/2
f 68/2/2 51/2/2 69/2/2
f 69/1/2 52/1/2 70/1/2
f 64/1/2 65/1/2 71/1/2
f 66/2/2 67/2/2 72/2/2
f 71/1/2 65/1/2 72/1/2
f 67/2/2 68/2/2 72/2/2
f 65/2/2 66/2/2 72/2/2
f 68/1/2 69/1/2 73/1/2
f 72/2/2 68/2/2 73/2/2
f 73/1/2 69/1/2 74/1/2
f 72/1/2 73/1/2 75/1/2
f 75/1/2 73/1/2 76/1/2
f 79/1/3 78/1/3 77/1/3
f 80/1/3 78/1/3 79/1/3
f 85/1/3 82/1/3 81/1/3
f 86/1/3 82/1/3 85/1/3
f 87/1/3 84/1/3 83/1/3
f 88/1/3 84/1/3 87/1/3
f 93/1/3 90/1/3 89/1/3
f 94/1/3 90/1/3 93/1/3
f 95/1/3 92/1/3 91/1/3
f 96/1/3 92/1/3 95/1/3
f 97/1/4 98/1/4 101/1/4
f 101/1/4 98/1/4 102/1/4
f 99/1/4 100/1/4 103/1/4
f 103/1/4 100/1/4 104/1/4
f 105/1/4 106/1/4 109/1/4
f 109/1/4 106/1/4 110/1/4
f 107/1/4 108/1/4 111/1/4
f 111/1/4 108/1/4 112/1/4
f 113/1/4 114/1/4 115/1/4
f 115/1/4 114/1/4 116/1/4
f 119/1/5 118/1/5 117/1/5
f 120/1/5 118/1/5 119/1/5
f 123/1/5 122/1/5 121/1/5
f 124/1/5 122/1/5 123/1/5
f 127/1/5 126/1/5 125/1/5
f 128/1/5 126/1/5 127/1/5
f 131/1/5 130/1/5 129/1/5
f 132/1/5 130/1/5 131/1/5
f 135/1/5 134/1/5 133/1/5
f 136/1/5 134/1/5 135/1/5
f 137/1/6 138/1/6 139/1/6
f 139/1/6 138/1/6 140/1/6
f 141/1/6 142/1/6 143/1/6
f 143/1/6 142/1/6 144/1/6
f 145/1/6 146/1/6 147/1/6
f 147/1/6 146/1/6 148/1/6
f 149/1/6 150/1/6 151/1/6
f 151/1/6 150/1/6 152/1/6
f 153/1/6 154/1/6 155/1/6
f 155/1/6 154/1/6 156/1/6
