# MagicaVoxel @ Ephtracy

# group
o 

# material
mtllib Door.mtl
usemtl palette

# normals
vn -1 0 0
vn 1 0 0
vn 0 0 1
vn 0 0 -1
vn 0 -1 0
vn 0 1 0

# texcoords
vt 0.103516 0.5
vt 0.322266 0.5
vt 0.353516 0.5
vt 0.935547 0.5

# verts
v -0.1 0.4 0.3
v -0.1 0.4 0.2
v -0.1 0.5 0.3
v -0.1 0.5 0.2
v 1.49012e-08 0 0.4
v 1.49012e-08 0 -0.3
v 1.49012e-08 0.1 0.3
v 1.49012e-08 0.1 0.1
v 1.49012e-08 0.1 0
v 1.49012e-08 0.1 -0.2
v 1.49012e-08 0.1 -0.3
v 1.49012e-08 0.2 0.3
v 1.49012e-08 0.2 0.1
v 1.49012e-08 0.2 0
v 1.49012e-08 0.2 -0.2
v 1.49012e-08 0.2 -0.3
v 1.49012e-08 0.3 0.3
v 1.49012e-08 0.3 0.1
v 1.49012e-08 0.3 0
v 1.49012e-08 0.3 -0.2
v 1.49012e-08 0.4 0.3
v 1.49012e-08 0.4 0.2
v 1.49012e-08 0.4 0.1
v 1.49012e-08 0.4 0
v 1.49012e-08 0.4 -0.2
v 1.49012e-08 0.4 -0.3
v 1.49012e-08 0.5 0.3
v 1.49012e-08 0.5 0.2
v 1.49012e-08 0.5 0.1
v 1.49012e-08 0.5 0
v 1.49012e-08 0.5 -0.2
v 1.49012e-08 0.5 -0.3
v 1.49012e-08 0.6 0.3
v 1.49012e-08 0.6 0.1
v 1.49012e-08 0.6 0
v 1.49012e-08 0.6 -0.2
v 1.49012e-08 0.7 0.3
v 1.49012e-08 0.7 0.1
v 1.49012e-08 0.7 0
v 1.49012e-08 0.7 -0.2
v 1.49012e-08 0.7 -0.3
v 1.49012e-08 0.8 -0.2
v 1.49012e-08 0.8 -0.3
v 1.49012e-08 0.9 0.3
v 1.49012e-08 0.9 0.1
v 1.49012e-08 0.9 0
v 1.49012e-08 0.9 -0.2
v 1.49012e-08 1 0.4
v 1.49012e-08 1 -0.3
v 0.1 0 0.4
v 0.1 0 -0.3
v 0.1 0.1 0.3
v 0.1 0.1 0.1
v 0.1 0.1 0
v 0.1 0.1 -0.2
v 0.1 0.1 -0.3
v 0.1 0.2 0.3
v 0.1 0.2 0.1
v 0.1 0.2 0
v 0.1 0.2 -0.2
v 0.1 0.2 -0.3
v 0.1 0.3 0.3
v 0.1 0.3 0.1
v 0.1 0.3 0
v 0.1 0.3 -0.2
v 0.1 0.4 0.3
v 0.1 0.4 0.2
v 0.1 0.4 0.1
v 0.1 0.4 0
v 0.1 0.4 -0.2
v 0.1 0.4 -0.3
v 0.1 0.5 0.3
v 0.1 0.5 0.2
v 0.1 0.5 0.1
v 0.1 0.5 0
v 0.1 0.5 -0.2
v 0.1 0.5 -0.3
v 0.1 0.6 0.3
v 0.1 0.6 0.1
v 0.1 0.6 0
v 0.1 0.6 -0.2
v 0.1 0.7 0.3
v 0.1 0.7 0.1
v 0.1 0.7 0
v 0.1 0.7 -0.2
v 0.1 0.7 -0.3
v 0.1 0.8 -0.2
v 0.1 0.8 -0.3
v 0.1 0.9 0.3
v 0.1 0.9 0.1
v 0.1 0.9 0
v 0.1 0.9 -0.2
v 0.1 1 0.4
v 0.1 1 -0.3
v 0.2 0.4 0.3
v 0.2 0.4 0.2
v 0.2 0.5 0.3
v 0.2 0.5 0.2
v 1.49012e-08 0 0.4
v 1.49012e-08 1 0.4
v 0.1 0 0.4
v 0.1 1 0.4
v -0.1 0.4 0.3
v -0.1 0.5 0.3
v 1.49012e-08 0.4 0.3
v 1.49012e-08 0.5 0.3
v 0.1 0.4 0.3
v 0.1 0.5 0.3
v 0.2 0.4 0.3
v 0.2 0.5 0.3
v -0.1 0.4 0.2
v -0.1 0.5 0.2
v 1.49012e-08 0.4 0.2
v 1.49012e-08 0.5 0.2
v 0.1 0.4 0.2
v 0.1 0.5 0.2
v 0.2 0.4 0.2
v 0.2 0.5 0.2
v 1.49012e-08 0 -0.3
v 1.49012e-08 0.1 -0.3
v 1.49012e-08 0.2 -0.3
v 1.49012e-08 0.4 -0.3
v 1.49012e-08 0.5 -0.3
v 1.49012e-08 0.7 -0.3
v 1.49012e-08 0.8 -0.3
v 1.49012e-08 1 -0.3
v 0.1 0 -0.3
v 0.1 0.1 -0.3
v 0.1 0.2 -0.3
v 0.1 0.4 -0.3
v 0.1 0.5 -0.3
v 0.1 0.7 -0.3
v 0.1 0.8 -0.3
v 0.1 1 -0.3
v 1.49012e-08 0 0.4
v 0.1 0 0.4
v 1.49012e-08 0 -0.3
v 0.1 0 -0.3
v -0.1 0.4 0.3
v 1.49012e-08 0.4 0.3
v 0.1 0.4 0.3
v 0.2 0.4 0.3
v -0.1 0.4 0.2
v 1.49012e-08 0.4 0.2
v 0.1 0.4 0.2
v 0.2 0.4 0.2
v -0.1 0.5 0.3
v 1.49012e-08 0.5 0.3
v 0.1 0.5 0.3
v 0.2 0.5 0.3
v -0.1 0.5 0.2
v 1.49012e-08 0.5 0.2
v 0.1 0.5 0.2
v 0.2 0.5 0.2
v 1.49012e-08 1 0.4
v 0.1 1 0.4
v 1.49012e-08 1 -0.3
v 0.1 1 -0.3

# faces
f 3/4/1 2/4/1 1/4/1
f 4/4/1 2/4/1 3/4/1
f 7/3/1 6/3/1 5/3/1
f 8/3/1 6/3/1 7/3/1
f 9/3/1 6/3/1 8/3/1
f 10/3/1 6/3/1 9/3/1
f 11/3/1 6/3/1 10/3/1
f 12/3/1 7/3/1 5/3/1
f 12/2/1 8/2/1 7/2/1
f 13/3/1 9/3/1 8/3/1
f 13/2/1 8/2/1 12/2/1
f 14/2/1 10/2/1 9/2/1
f 14/3/1 9/3/1 13/3/1
f 15/4/1 11/4/1 10/4/1
f 15/2/1 10/2/1 14/2/1
f 16/4/1 11/4/1 15/4/1
f 17/3/1 14/3/1 13/3/1
f 17/3/1 12/3/1 5/3/1
f 17/3/1 16/3/1 15/3/1
f 17/3/1 15/3/1 14/3/1
f 17/3/1 13/3/1 12/3/1
f 18/3/1 16/3/1 17/3/1
f 19/3/1 16/3/1 18/3/1
f 20/3/1 16/3/1 19/3/1
f 21/3/1 17/3/1 5/3/1
f 21/2/1 18/2/1 17/2/1
f 22/2/1 18/2/1 21/2/1
f 23/3/1 19/3/1 18/3/1
f 23/2/1 18/2/1 22/2/1
f 24/2/1 20/2/1 19/2/1
f 24/3/1 19/3/1 23/3/1
f 25/3/1 16/3/1 20/3/1
f 25/2/1 20/2/1 24/2/1
f 26/3/1 16/3/1 25/3/1
f 27/3/1 21/3/1 5/3/1
f 28/3/1 24/3/1 23/3/1
f 28/3/1 23/3/1 22/3/1
f 28/3/1 25/3/1 24/3/1
f 29/3/1 25/3/1 28/3/1
f 30/3/1 25/3/1 29/3/1
f 31/4/1 26/4/1 25/4/1
f 31/3/1 25/3/1 30/3/1
f 32/4/1 26/4/1 31/4/1
f 33/3/1 27/3/1 5/3/1
f 33/2/1 28/2/1 27/2/1
f 33/2/1 29/2/1 28/2/1
f 34/3/1 30/3/1 29/3/1
f 34/2/1 29/2/1 33/2/1
f 35/2/1 31/2/1 30/2/1
f 35/3/1 30/3/1 34/3/1
f 36/3/1 32/3/1 31/3/1
f 36/2/1 31/2/1 35/2/1
f 37/3/1 33/3/1 5/3/1
f 37/3/1 35/3/1 34/3/1
f 37/3/1 36/3/1 35/3/1
f 37/3/1 34/3/1 33/3/1
f 38/3/1 36/3/1 37/3/1
f 39/3/1 36/3/1 38/3/1
f 40/3/1 32/3/1 36/3/1
f 40/3/1 36/3/1 39/3/1
f 41/3/1 32/3/1 40/3/1
f 42/1/1 40/1/1 39/1/1
f 42/4/1 41/4/1 40/4/1
f 43/4/1 41/4/1 42/4/1
f 44/3/1 37/3/1 5/3/1
f 44/1/1 38/1/1 37/1/1
f 45/3/1 39/3/1 38/3/1
f 45/1/1 38/1/1 44/1/1
f 46/1/1 42/1/1 39/1/1
f 46/3/1 39/3/1 45/3/1
f 47/3/1 43/3/1 42/3/1
f 47/1/1 42/1/1 46/1/1
f 48/3/1 44/3/1 5/3/1
f 48/3/1 46/3/1 45/3/1
f 48/3/1 47/3/1 46/3/1
f 48/3/1 45/3/1 44/3/1
f 49/3/1 43/3/1 47/3/1
f 49/3/1 47/3/1 48/3/1
f 50/3/2 51/3/2 52/3/2
f 52/3/2 51/3/2 53/3/2
f 53/3/2 51/3/2 54/3/2
f 54/3/2 51/3/2 55/3/2
f 55/3/2 51/3/2 56/3/2
f 50/3/2 52/3/2 57/3/2
f 52/2/2 53/2/2 57/2/2
f 53/3/2 54/3/2 58/3/2
f 57/2/2 53/2/2 58/2/2
f 54/2/2 55/2/2 59/2/2
f 58/3/2 54/3/2 59/3/2
f 55/4/2 56/4/2 60/4/2
f 59/2/2 55/2/2 60/2/2
f 60/4/2 56/4/2 61/4/2
f 58/3/2 59/3/2 62/3/2
f 50/3/2 57/3/2 62/3/2
f 60/3/2 61/3/2 62/3/2
f 59/3/2 60/3/2 62/3/2
f 57/3/2 58/3/2 62/3/2
f 62/3/2 61/3/2 63/3/2
f 63/3/2 61/3/2 64/3/2
f 64/3/2 61/3/2 65/3/2
f 50/3/2 62/3/2 66/3/2
f 62/2/2 63/2/2 66/2/2
f 66/2/2 63/2/2 67/2/2
f 63/3/2 64/3/2 68/3/2
f 67/2/2 63/2/2 68/2/2
f 64/2/2 65/2/2 69/2/2
f 68/3/2 64/3/2 69/3/2
f 65/3/2 61/3/2 70/3/2
f 69/2/2 65/2/2 70/2/2
f 70/3/2 61/3/2 71/3/2
f 50/3/2 66/3/2 72/3/2
f 68/3/2 69/3/2 73/3/2
f 67/3/2 68/3/2 73/3/2
f 69/3/2 70/3/2 73/3/2
f 73/3/2 70/3/2 74/3/2
f 74/3/2 70/3/2 75/3/2
f 70/4/2 71/4/2 76/4/2
f 75/3/2 70/3/2 76/3/2
f 76/4/2 71/4/2 77/4/2
f 50/3/2 72/3/2 78/3/2
f 72/2/2 73/2/2 78/2/2
f 73/2/2 74/2/2 78/2/2
f 74/3/2 75/3/2 79/3/2
f 78/2/2 74/2/2 79/2/2
f 75/2/2 76/2/2 80/2/2
f 79/3/2 75/3/2 80/3/2
f 76/3/2 77/3/2 81/3/2
f 80/2/2 76/2/2 81/2/2
f 50/3/2 78/3/2 82/3/2
f 79/3/2 80/3/2 82/3/2
f 80/3/2 81/3/2 82/3/2
f 78/3/2 79/3/2 82/3/2
f 82/3/2 81/3/2 83/3/2
f 83/3/2 81/3/2 84/3/2
f 81/3/2 77/3/2 85/3/2
f 84/3/2 81/3/2 85/3/2
f 85/3/2 77/3/2 86/3/2
f 84/1/2 85/1/2 87/1/2
f 85/4/2 86/4/2 87/4/2
f 87/4/2 86/4/2 88/4/2
f 50/3/2 82/3/2 89/3/2
f 82/1/2 83/1/2 89/1/2
f 83/3/2 84/3/2 90/3/2
f 89/1/2 83/1/2 90/1/2
f 84/1/2 87/1/2 91/1/2
f 90/3/2 84/3/2 91/3/2
f 87/3/2 88/3/2 92/3/2
f 91/1/2 87/1/2 92/1/2
f 50/3/2 89/3/2 93/3/2
f 90/3/2 91/3/2 93/3/2
f 91/3/2 92/3/2 93/3/2
f 89/3/2 90/3/2 93/3/2
f 92/3/2 88/3/2 94/3/2
f 93/3/2 92/3/2 94/3/2
f 95/4/2 96/4/2 97/4/2
f 97/4/2 96/4/2 98/4/2
f 101/3/3 100/3/3 99/3/3
f 102/3/3 100/3/3 101/3/3
f 105/4/3 104/4/3 103/4/3
f 106/4/3 104/4/3 105/4/3
f 109/4/3 108/4/3 107/4/3
f 110/4/3 108/4/3 109/4/3
f 111/4/4 112/4/4 113/4/4
f 113/4/4 112/4/4 114/4/4
f 115/4/4 116/4/4 117/4/4
f 117/4/4 116/4/4 118/4/4
f 119/3/4 120/3/4 127/3/4
f 120/4/4 121/4/4 128/4/4
f 127/3/4 120/3/4 128/3/4
f 121/3/4 122/3/4 129/3/4
f 128/4/4 121/4/4 129/4/4
f 122/4/4 123/4/4 130/4/4
f 129/3/4 122/3/4 130/3/4
f 123/3/4 124/3/4 131/3/4
f 130/4/4 123/4/4 131/4/4
f 124/4/4 125/4/4 132/4/4
f 131/3/4 124/3/4 132/3/4
f 125/3/4 126/3/4 133/3/4
f 132/4/4 125/4/4 133/4/4
f 133/3/4 126/3/4 134/3/4
f 137/3/5 136/3/5 135/3/5
f 138/3/5 136/3/5 137/3/5
f 143/4/5 140/4/5 139/4/5
f 144/4/5 140/4/5 143/4/5
f 145/4/5 142/4/5 141/4/5
f 146/4/5 142/4/5 145/4/5
f 147/4/6 148/4/6 151/4/6
f 151/4/6 148/4/6 152/4/6
f 149/4/6 150/4/6 153/4/6
f 153/4/6 150/4/6 154/4/6
f 155/3/6 156/3/6 157/3/6
f 157/3/6 156/3/6 158/3/6
